<svg width="120" height="30" viewBox="0 0 120 30" fill="none" xmlns="http://www.w3.org/2000/svg">
  <path d="M14.168 6.69h13.74v3.42h-9.66v3.96h8.76v3.36h-8.76v4.23h9.93v3.54h-14.01V6.69z" fill="white"/>
  <path d="M31.448 6.69h4.86l5.04 8.46 5.04-8.46h4.86v18.51h-4.47V13.05l-5.43 8.61h-0.09l-5.34-8.55v12.09h-4.47V6.69z" fill="white"/>
  <path d="M54.768 6.69h4.08v18.51h-4.08V6.69z" fill="white"/>
  <path d="M62.088 6.69h4.41l9.21 11.88V6.69h4.08v18.51h-4.08l-9.54-12.27v12.27h-4.08V6.69z" fill="white"/>
  <path d="M85.828 6.69h4.68a16.711 16.711 0 018.34 1.83 12.488 12.488 0 014.88 5.07c1.12 2.14 1.69 4.62 1.68 7.29 0 2.67-0.56 5.03-1.68 7.08a12.15 12.15 0 01-4.88 4.95c-2.17 1.19-4.84 1.83-8.01 1.92h-5.01V6.69z" fill="white"/>
  <path fill-rule="evenodd" clip-rule="evenodd" d="M90.508 31.5c3.52-0.1 6.44-0.81 8.76-2.13a14.762 14.762 0 005.85-5.97c1.34-2.45 2.01-5.25 2.01-8.4 0.01-3.08-0.66-5.96-2.01-8.52a14.87 14.87 0 00-5.85-6.21c-2.59-1.51-5.78-2.27-9.57-2.27h-8.16v35.97h8.97v-2.47z" fill="white"/>
  <path d="M14.168 5.19h-4.08v22.5h4.08V5.19z" fill="white"/>
  <path d="M5.088 5.19H1.008v22.5h4.08V5.19z" fill="white"/>
  <path d="M7.12 25.2h1.02c2.79 0 5.04-2.31 5.04-5.16 0-2.85-2.25-5.16-5.04-5.16H7.12v10.32z" fill="white"/>
</svg> 